<svg width="68" height="69" viewBox="0 0 68 69" fill="none" xmlns="http://www.w3.org/2000/svg">
<path d="M25.1458 49.6303L48.6152 34.2278L25.1458 18.8253V49.6303ZM33.5277 68.4556C28.8897 68.4556 24.5311 67.5571 20.4519 65.7601C16.3727 63.9632 12.8243 61.5244 9.80685 58.4439C6.78936 55.3634 4.40051 51.741 2.64031 47.5766C0.880102 43.4122 0 38.9626 0 34.2278C0 29.4929 0.880102 25.0433 2.64031 20.879C4.40051 16.7146 6.78936 13.0921 9.80685 10.0116C12.8243 6.93113 16.3727 4.4924 20.4519 2.69544C24.5311 0.898479 28.8897 0 33.5277 0C38.1657 0 42.5243 0.898479 46.6035 2.69544C50.6827 4.4924 54.231 6.93113 57.2485 10.0116C60.266 13.0921 62.6549 16.7146 64.4151 20.879C66.1753 25.0433 67.0554 29.4929 67.0554 34.2278C67.0554 38.9626 66.1753 43.4122 64.4151 47.5766C62.6549 51.741 60.266 55.3634 57.2485 58.4439C54.231 61.5244 50.6827 63.9632 46.6035 65.7601C42.5243 67.5571 38.1657 68.4556 33.5277 68.4556ZM33.5277 61.61C41.0155 61.61 47.3579 58.9574 52.5547 53.6521C57.7515 48.3467 60.3498 41.872 60.3498 34.2278C60.3498 26.5836 57.7515 20.1088 52.5547 14.8035C47.3579 9.49821 41.0155 6.84556 33.5277 6.84556C26.0398 6.84556 19.6975 9.49821 14.5007 14.8035C9.30394 20.1088 6.70554 26.5836 6.70554 34.2278C6.70554 41.872 9.30394 48.3467 14.5007 53.6521C19.6975 58.9574 26.0398 61.61 33.5277 61.61Z" fill="white"/>
</svg>
