<svg width="48" height="48" viewBox="0 0 48 48" fill="none" xmlns="http://www.w3.org/2000/svg">
<mask id="mask0_3178_1143" style="mask-type:alpha" maskUnits="userSpaceOnUse" x="0" y="0" width="48" height="48">
<rect width="48" height="48" fill="#D9D9D9"/>
</mask>
<g mask="url(#mask0_3178_1143)">
<path d="M14.2001 22.7004C14.6668 21.7671 15.1501 20.8671 15.6501 20.0004C16.1501 19.1337 16.7001 18.2671 17.3001 17.4004L14.5001 16.8504L10.3001 21.0504L14.2001 22.7004ZM38.3001 8.95041C35.9668 9.01707 33.4751 9.70041 30.8251 11.0004C28.1751 12.3004 25.7668 14.0337 23.6001 16.2004C22.2001 17.6004 20.9501 19.1004 19.8501 20.7004C18.7501 22.3004 17.9334 23.8004 17.4001 25.2004L23.1001 30.8504C24.5001 30.3171 26.0001 29.5004 27.6001 28.4004C29.2001 27.3004 30.7001 26.0504 32.1001 24.6504C34.2668 22.4837 36.0001 20.0837 37.3001 17.4504C38.6001 14.8171 39.2834 12.3337 39.3501 10.0004C39.3501 9.86707 39.3251 9.73374 39.2751 9.60041C39.2251 9.46707 39.1501 9.35041 39.0501 9.25041C38.9501 9.15041 38.8334 9.07541 38.7001 9.02541C38.5668 8.97541 38.4334 8.95041 38.3001 8.95041ZM27.3001 20.9504C26.5334 20.1837 26.1501 19.2421 26.1501 18.1254C26.1501 17.0087 26.5334 16.0671 27.3001 15.3004C28.0668 14.5337 29.0168 14.1504 30.1501 14.1504C31.2834 14.1504 32.2334 14.5337 33.0001 15.3004C33.7668 16.0671 34.1501 17.0087 34.1501 18.1254C34.1501 19.2421 33.7668 20.1837 33.0001 20.9504C32.2334 21.7171 31.2834 22.1004 30.1501 22.1004C29.0168 22.1004 28.0668 21.7171 27.3001 20.9504ZM25.6001 34.0504L27.2501 38.0004L31.4501 33.8004L30.9001 31.0004C30.0334 31.6004 29.1668 32.1421 28.3001 32.6254C27.4334 33.1087 26.5334 33.5837 25.6001 34.0504ZM43.1501 7.35041C43.4168 11.0171 42.8168 14.5921 41.3501 18.0754C39.8834 21.5587 37.5668 24.8837 34.4001 28.0504L35.4001 33.0004C35.5334 33.6671 35.5001 34.3171 35.3001 34.9504C35.1001 35.5837 34.7668 36.1337 34.3001 36.6004L28.0001 42.9004C27.5001 43.4004 26.9001 43.5921 26.2001 43.4754C25.5001 43.3587 25.0168 42.9671 24.7501 42.3004L21.7001 35.1504L13.1501 26.6004L6.0001 23.5504C5.33343 23.2837 4.93343 22.8004 4.8001 22.1004C4.66676 21.4004 4.8501 20.8004 5.3501 20.3004L11.6501 14.0004C12.1168 13.5337 12.6751 13.2004 13.3251 13.0004C13.9751 12.8004 14.6334 12.7671 15.3001 12.9004L20.2501 13.9004C23.4168 10.7337 26.7418 8.41707 30.2251 6.95041C33.7084 5.48374 37.2834 4.88374 40.9501 5.15041C41.2168 5.18374 41.4834 5.25874 41.7501 5.37541C42.0168 5.49207 42.2501 5.65041 42.4501 5.85041C42.6501 6.05041 42.8084 6.28374 42.9251 6.55041C43.0418 6.81707 43.1168 7.08374 43.1501 7.35041ZM7.8501 31.9504C9.01676 30.7837 10.4418 30.1921 12.1251 30.1754C13.8084 30.1587 15.2334 30.7337 16.4001 31.9004C17.5668 33.0671 18.1418 34.4921 18.1251 36.1754C18.1084 37.8587 17.5168 39.2837 16.3501 40.4504C14.7501 42.0504 12.8584 43.0004 10.6751 43.3004C8.49176 43.6004 6.3001 43.9004 4.1001 44.2004C4.4001 42.0004 4.7001 39.8087 5.0001 37.6254C5.3001 35.4421 6.2501 33.5504 7.8501 31.9504ZM10.7001 34.7504C10.1334 35.3171 9.74176 36.0004 9.5251 36.8004C9.30843 37.6004 9.13343 38.4171 9.0001 39.2504C9.83343 39.1171 10.6501 38.9504 11.4501 38.7504C12.2501 38.5504 12.9334 38.1671 13.5001 37.6004C13.9001 37.2004 14.1168 36.7171 14.1501 36.1504C14.1834 35.5837 14.0001 35.1004 13.6001 34.7004C13.2001 34.3004 12.7168 34.1087 12.1501 34.1254C11.5834 34.1421 11.1001 34.3504 10.7001 34.7504Z" fill="#F1C953"/>
</g>
</svg>
